<?xml version="1.0" encoding="UTF-8"?>
<svg xmlns="http://www.w3.org/2000/svg" version="1.1" xmlns:serif="http://www.serif.com/" viewBox="0 0 8192 8192">
  <defs>
    <style>
      .cls-1 {
        fill: #fff;
      }

      .cls-2 {
        fill: #1099d6;
      }
    </style>
  </defs>
  <!-- Generator: Adobe Illustrator 28.7.1, SVG Export Plug-In . SVG Version: 1.2.0 Build 142)  -->
  <g>
    <g id="Layer_1">
      <circle class="cls-2" cx="4090.5" cy="4087.5" r="4019.5"/>
      <path class="cls-1" d="M5446.9,4701.2c-94.1-892-548.8-1723.5-1253-2287.9-2.7-2.3-8-6.6-13.3-10.8l-6.6-5.3c-506.5-399.5-1106.7-643.5-1741.8-709,484.1-337,1069.2-521.6,1658.3-521.6s1536.6,315.8,2089.4,889.3c8,8,14.3,14.7,20.8,21.6l3.3,3.5c324.2,343.9,561.3,764.3,686.2,1216.6-314.5,610.8-825.3,1107.3-1443.4,1403.7h.1Z"/>
      <path class="cls-1" d="M3266.1,6855C1126.9,6273.9,464,3354.8,2151.7,1910.5c637.6,14.4,1245.6,218.3,1762.1,590.8-1244.8,1051.1-1536.1,2990.3-647.7,4353.7h0Z"/>
      <path class="cls-1" d="M4090.5,6974.4c-160.5,0-321.6-13.3-479-39.6-40.3-53.9-79.2-109.8-115.8-166.1l-19.4-30c-318.4-500.7-487.4-1079.7-488.9-1674.7,354.1,122.5,725,184.5,1103.2,184.5s872.9-84.4,1279.3-250.9h-.1c-.2,0,21.7-9,27-11.3,642.9-269.2,1196.4-741.1,1567.7-1334.5,20.1,138.5,30.2,278.8,30.2,418.4,0,1312.6-885.5,2466.2-2153.4,2805.3-13.2,4-23.4,6.5-33.8,9.1-44.7,11.4-85.4,20.8-124.6,28.7l-37.2,7.5c-181.8,35.4-368.6,53.4-555,53.4l-.2.2Z"/>
    </g>
  </g>
</svg>